<svg xmlns="http://www.w3.org/2000/svg" viewBox="0 0 22.33 22.33"><defs><style>.cls-1{fill:#00aeef;}.cls-2{fill:#fff;}</style></defs><title>experience</title><g id="Vrstva_2" data-name="Vrstva 2"><g id="Resume"><circle class="cls-1" cx="11.17" cy="11.17" r="11.17" transform="translate(-4.63 11.17) rotate(-45)"/><path class="cls-2" d="M12.42,13a1.31,1.31,0,0,1-2.51,0H4.77a2,2,0,0,1-.9-.21V16.2a1.21,1.21,0,0,0,1.21,1.21H17.26a1.22,1.22,0,0,0,1.21-1.21V12.79a2.13,2.13,0,0,1-.91.2Z"/><path class="cls-2" d="M17.51,6.87H14.6a2.29,2.29,0,0,0-2.27-1.94H10A2.3,2.3,0,0,0,7.73,6.87H4.82A1.24,1.24,0,0,0,3.56,8.08v2.79a1.21,1.21,0,0,0,1.21,1.21H9.85a1.28,1.28,0,0,1,.41-.88l0,0,.17-.14.06,0,.15-.08.13,0,.12,0,.26,0,.26,0,.11,0,.13,0,.15.08.07,0a1.07,1.07,0,0,1,.16.14l0,0a1.32,1.32,0,0,1,.4.88h5.08a1.21,1.21,0,0,0,1.21-1.21V8.08a1.24,1.24,0,0,0-1.26-1.21Zm-8.62,0A1.17,1.17,0,0,1,10,6.06h2.33a1.17,1.17,0,0,1,1.11.81Z"/></g></g></svg>