<svg xmlns="http://www.w3.org/2000/svg" viewBox="0 0 12.6 12.59"><defs><style>.cls-1{fill:#00aeef;fill-rule:evenodd;}.cls-2{fill:#fff;}</style></defs><title>mail</title><g id="Vrstva_2" data-name="Vrstva 2"><g id="Resume"><g id="Rounded_Rectangle_1" data-name="Rounded Rectangle 1"><path class="cls-1" d="M3.6,0A3.6,3.6,0,0,0,0,3.6v9H9A3.61,3.61,0,0,0,12.6,9V0Z"/></g><g id="Mail_icon" data-name="Mail icon"><path class="cls-2" d="M7.38,6.79,7,7a1.74,1.74,0,0,1-.34.18.91.91,0,0,1-.4.1h0a.87.87,0,0,1-.39-.1A1.87,1.87,0,0,1,5.55,7l-.33-.25L5.09,6.7,3.25,8.62a.55.55,0,0,0,.38.15H9a.52.52,0,0,0,.38-.15L7.5,6.7Zm-4-1.31a1.65,1.65,0,0,1-.37-.33V8.09l1.62-1.7Zm4.5.91,1.62,1.7V5.15a1.91,1.91,0,0,1-.36.33ZM3.68,5.08l.74.54L5,6l.37.27,0,0,.1.08.2.14.18.12.21.11.18,0h0a.57.57,0,0,0,.18,0,1.06,1.06,0,0,0,.21-.11l.19-.12.19-.14.1-.08.06,0L7.59,6l1.33-1a1.83,1.83,0,0,0,.45-.47A1.08,1.08,0,0,0,9.54,4a.57.57,0,0,0-.17-.43A.54.54,0,0,0,9,3.43H3.63a.5.5,0,0,0-.43.2.77.77,0,0,0-.15.49,1,1,0,0,0,.2.52A2,2,0,0,0,3.68,5.08Z"/></g></g></g></svg>