<svg xmlns="http://www.w3.org/2000/svg" viewBox="0 0 22.33 22.33"><defs><style>.cls-1{fill:#00aeef;}.cls-2{fill:#fff;}</style></defs><title>reference</title><g id="Vrstva_2" data-name="Vrstva 2"><g id="Resume"><circle class="cls-1" cx="11.17" cy="11.17" r="11.17" transform="translate(-1.74 20.27) rotate(-80.21)"/><path class="cls-2" d="M19.77,9.29A1.27,1.27,0,0,0,18,9.45l-.28.32,1.95,1.64.26-.33A1.28,1.28,0,0,0,19.77,9.29Z"/><path class="cls-2" d="M13.47,16.17a.43.43,0,0,0,.58.49L15.61,16a1.23,1.23,0,0,0,.46-.35l.15-.17-1.95-1.64-.14.17a1.25,1.25,0,0,0-.26.53Z"/><polygon class="cls-2" points="14.82 13.19 16.76 14.82 19.1 12.05 17.16 10.42 14.82 13.19"/><path class="cls-2" d="M16.38,5.82,14.77,4.29A1.22,1.22,0,0,0,14.23,4V6.48h2.52A1.32,1.32,0,0,0,16.38,5.82Z"/><path class="cls-2" d="M15.94,16.76l-1.55.68a1.27,1.27,0,0,1-1.32-.2A1.26,1.26,0,0,1,12.65,16L13,14.33a2.17,2.17,0,0,1,.44-.87l3.29-3.9V7.33h-3a.42.42,0,0,1-.42-.42v-3H7A1.27,1.27,0,0,0,5.77,5.21V17.12A1.27,1.27,0,0,0,7,18.39H15.5a1.27,1.27,0,0,0,1.27-1.27v-1l-.05.06A2.13,2.13,0,0,1,15.94,16.76Zm-8-10.28h4.23a.43.43,0,0,1,0,.85H7.89a.43.43,0,1,1,0-.85Zm0,2.57h6.77a.43.43,0,0,1,0,.85H7.89a.43.43,0,1,1,0-.85Zm0,2.54H13a.43.43,0,0,1,0,.85H7.89a.43.43,0,1,1,0-.85ZM11.27,15H7.89a.43.43,0,1,1,0-.85h3.38a.43.43,0,1,1,0,.85Z"/></g></g></svg>