<svg xmlns="http://www.w3.org/2000/svg" viewBox="0 0 12.6 12.59"><defs><style>.cls-1{fill:#fff;fill-rule:evenodd;}.cls-2{fill:#00aeef;}</style></defs><title>telefon</title><g id="Vrstva_2" data-name="Vrstva 2"><g id="Resume"><g id="Rounded_Rectangle_1" data-name="Rounded Rectangle 1"><path class="cls-1" d="M3.6,0A3.6,3.6,0,0,0,0,3.6v9H9A3.61,3.61,0,0,0,12.6,9V0Z"/></g><g id="Phone_icon" data-name="Phone icon"><path class="cls-2" d="M8.09,7.85a.46.46,0,0,0-.73,0l-.51.53s-.08.06-.14,0a3.47,3.47,0,0,1-.33-.18A5.34,5.34,0,0,1,5.1,7a2.94,2.94,0,0,1-.45-.77.12.12,0,0,1,0-.14l.51-.53a.54.54,0,0,0,0-.79l-.4-.42-.41-.43a.47.47,0,0,0-.73,0l-.51.53A.94.94,0,0,0,2.87,5a2.64,2.64,0,0,0,.18,1.08,6.58,6.58,0,0,0,1.1,1.93A7,7,0,0,0,6.4,9.92a3.3,3.3,0,0,0,1.25.38A.88.88,0,0,0,8.44,10c.14-.17.31-.33.46-.49a.53.53,0,0,0,0-.78ZM7.81,6.64l.53-.09A2.53,2.53,0,0,0,7.68,5.2a2.31,2.31,0,0,0-1.34-.7l-.08.56a1.76,1.76,0,0,1,1,.54A2,2,0,0,1,7.81,6.64Zm.83-2.42A3.8,3.8,0,0,0,6.41,3.05l-.08.56a3.34,3.34,0,0,1,1.93,1A3.55,3.55,0,0,1,9.2,6.55l.53-.1A4.27,4.27,0,0,0,8.64,4.22Z"/></g></g></g></svg>