<svg xmlns="http://www.w3.org/2000/svg" viewBox="0 0 22.33 22.33"><defs><style>.cls-1{fill:#00aeef;}.cls-2{fill:#fff;}</style></defs><title>vzdelani</title><g id="Vrstva_2" data-name="Vrstva 2"><g id="Resume"><circle class="cls-1" cx="11.17" cy="11.17" r="11.17" transform="translate(-1.72 20.29) rotate(-80.29)"/><path class="cls-2" d="M12.21,14.32a2.09,2.09,0,0,1-2.09,0L5.38,11.41S5,11.15,5,11.74v2.91c0,1.53,2.78,3.17,6.22,3.17s6.21-1.64,6.21-3.17V11.58c0-.48-.3-.24-.3-.24Z"/><path class="cls-2" d="M19.05,9.1a.44.44,0,0,0,0-.81L11.83,4.68a1.37,1.37,0,0,0-1.33,0L3.28,8.29a.44.44,0,0,0,0,.81l7.22,4.43a1.42,1.42,0,0,0,1.33,0"/><path class="cls-2" d="M18.75,15.66V10.77s0-.23-.13-.15a4.71,4.71,0,0,0-.48.29.4.4,0,0,0-.08.31v4.44a.13.13,0,0,1-.08.11.85.85,0,1,0,.85,0,.11.11,0,0,1-.08-.11Z"/></g></g></svg>